<svg xmlns="http://www.w3.org/2000/svg" xmlns:krita="http://krita.org/namespaces/svg/krita" width="320" height="320"
    viewBox="0 0 240 240">
    <g fill="none">
        <g stroke-opacity="0" stroke-width="0" stroke-linecap="square" stroke-linejoin="bevel">
            <path fill="#f4900c"
                d="M228.247 126.234a107.992 107.992 0 0 0-6.622-37.364c-2.93 34.314-21.223 51.939-40.338 43.731-17.905-7.692-5.839-37.676-4.947-51.983 1.502-24.254-.077-52.016-44.133-75.098 18.306 35.02 2.12 56.778-14.855 58.103-18.835 1.47-36.085-16.186-29.717-44.84C67.017 33.976 66.418 59.548 72.78 76.09c6.634 17.243-.268 31.57-16.448 33.162-18.083 1.783-28.13-19.363-18.866-53.06a107.864 107.864 0 0 0-25.712 70.042c0 59.784 48.463 108.246 108.246 108.246s108.247-48.462 108.247-108.246Z" />
            <path fill="#ffcc4d"
                d="M186.184 158.065c.942 19.637-16.307 27.335-25.591 23.617-13.41-5.368-9.812-14.588-13.263-33.69-3.452-19.103-16.715-32.366-36.346-38.205 14.327 40.325-7.94 55.186-19.612 57.842-11.92 2.712-23.897-.007-25.266-25.515a76.18 76.18 0 0 0-22.515 54.162c0 2.343.147 4.648.35 6.94a107.858 107.858 0 0 0 76.06 31.264c29.659 0 56.51-11.945 76.059-31.264.203-2.292.35-4.597.35-6.94 0-13.926-3.719-26.973-10.226-38.211Z" />
        </g>
        <path stroke="#33363f" stroke-width="11.557" stroke-miterlimit="2"
            d="M126.758 203.652h11.558a11.557 11.557 0 0 0 11.557-11.558v-14.088a11.557 11.557 0 0 1 8.755-11.21l8.754-2.197c1.457-.364 1.457-2.432 0-2.802l-8.754-2.185a11.557 11.557 0 0 1-8.755-11.21V122.75h-23.115m-23.115 0H92.086a11.557 11.557 0 0 0-11.557 11.557v14.089a11.557 11.557 0 0 1-8.755 11.21l-8.755 2.196c-1.456.365-1.456 2.433 0 2.803l8.755 2.184A11.557 11.557 0 0 1 80.529 178v25.652h23.114" />
        <text krita:useRichText="true" krita:textVersion="2" transform="translate(90.951 186.9)" fill="#1e74fd"
            stroke-opacity="0" stroke="#000" stroke-width="0" stroke-linecap="square" stroke-linejoin="bevel"
            font-family="Segoe Script" font-size="16" font-size-adjust=".158" letter-spacing="0" word-spacing="0">
            <tspan x="0">JSON</tspan>
        </text>
    </g>
</svg>